<svg xmlns="http://www.w3.org/2000/svg" viewBox="0 0 1200 760" preserveAspectRatio="xMidYMid meet">
  <defs>
    <pattern id="deck" width="36" height="36" patternUnits="userSpaceOnUse"><rect width="36" height="36" fill="#c79b6a"/><path d="M2 0v36M34 0v36" stroke="#a87950" stroke-width="2"/></pattern>
    <pattern id="pavers" width="56" height="40" patternUnits="userSpaceOnUse"><rect width="56" height="40" fill="#c8c9c2"/><path d="M0 1h55M1 1v38m27-38v38m27-38v38" fill="none" stroke="#a5a8a2" stroke-width="2"/></pattern>
  </defs>
  <rect width="1200" height="760" fill="#e9ece7"/>
  <rect x="55" y="45" width="1090" height="670" rx="6" fill="#a9c875" stroke="#687e4e" stroke-width="18"/>
  <rect x="72" y="62" width="1056" height="636" fill="none" stroke="#e0dfd3" stroke-width="5"/>
  <rect x="108" y="100" width="310" height="176" fill="#dedbd2" stroke="#777d77" stroke-width="10"/>
  <rect x="132" y="125" width="88" height="72" fill="#b9dadd" stroke="#f4f1e9" stroke-width="8"/>
  <rect x="304" y="125" width="88" height="72" fill="#b9dadd" stroke="#f4f1e9" stroke-width="8"/>
  <rect x="232" y="198" width="62" height="78" fill="#8a674a" stroke="#644d3a" stroke-width="6"/>
  <rect x="530" y="100" width="330" height="176" fill="url(#deck)" stroke="#916c49" stroke-width="12"/>
  <rect x="920" y="100" width="175" height="530" fill="url(#pavers)" stroke="#999d97" stroke-width="10"/>
  <rect x="105" y="350" width="325" height="122" rx="4" fill="#76563b" stroke="#b38a5c" stroke-width="14"/>
  <rect x="105" y="518" width="325" height="122" rx="4" fill="#76563b" stroke="#b38a5c" stroke-width="14"/>
</svg>